<?xml version="1.0" standalone="no"?>
<!DOCTYPE svg PUBLIC "-//W3C//DTD SVG 20010904//EN"
 "http://www.w3.org/TR/2001/REC-SVG-20010904/DTD/svg10.dtd">
<svg version="1.0" xmlns="http://www.w3.org/2000/svg"
 width="385.000000pt" height="327.000000pt" viewBox="0 0 385.000000 327.000000"
 preserveAspectRatio="xMidYMid meet">
<metadata>
Created by potrace 1.16, written by Peter Selinger 2001-2019
</metadata>
<g transform="translate(0.000000,327.000000) scale(0.100000,-0.100000)"
fill="#000000" stroke="none">
<path d="M1790 3214 c-14 -7 -41 -14 -60 -14 -19 0 -75 -7 -125 -15 -578 -95
-1054 -460 -1259 -965 -14 -35 -32 -67 -39 -72 -6 -4 -12 -22 -13 -40 0 -18
-11 -80 -24 -138 -34 -149 -34 -407 -1 -560 98 -457 400 -837 840 -1056 416
-207 889 -239 1341 -92 113 36 294 122 381 181 35 23 72 41 83 42 11 0 25 10
31 22 6 12 47 53 91 90 147 128 275 299 365 488 99 209 133 361 133 605 1 150
-3 190 -23 280 -14 58 -24 116 -24 130 1 14 -5 32 -12 40 -7 8 -23 39 -34 67
-84 214 -245 439 -418 585 -304 257 -629 385 -1060 417 -59 5 -117 11 -128 14
-11 3 -31 -1 -45 -9z m-10 -65 c0 -6 -54 -189 -120 -408 -66 -218 -120 -400
-120 -404 0 -4 11 -7 24 -7 22 0 27 9 50 83 13 45 68 226 121 402 52 176 97
324 98 329 2 4 76 -177 166 -403 154 -391 164 -411 188 -411 19 0 24 4 20 18
-2 9 -75 194 -161 410 -86 217 -156 396 -156 398 0 8 109 3 211 -11 333 -44
628 -170 869 -372 175 -147 342 -374 420 -573 l20 -50 -500 0 -500 0 0 -25 0
-25 491 -2 490 -3 -420 -284 c-230 -156 -423 -284 -428 -285 -4 0 -35 69 -68
153 l-60 155 -3 -65 c-2 -56 3 -77 38 -163 22 -55 40 -104 40 -110 0 -6 -18
-22 -40 -36 -34 -21 -40 -30 -40 -58 l0 -33 52 35 c29 20 53 34 54 33 6 -6
335 -840 332 -842 -2 -1 -165 99 -363 222 -329 204 -364 223 -404 223 -26 0
-41 -4 -36 -9 6 -4 188 -117 405 -251 217 -134 399 -247 403 -251 21 -18 -228
-152 -388 -209 -434 -154 -918 -127 -1327 75 l-97 48 37 26 c20 15 217 148
436 296 396 267 400 270 359 273 -39 3 -60 -10 -409 -246 -203 -137 -381 -257
-396 -267 l-28 -17 10 28 c5 16 68 227 141 469 72 242 134 446 138 453 5 9 19
4 54 -18 26 -16 50 -30 52 -30 3 0 5 13 5 28 0 23 -8 33 -40 51 -22 12 -42 26
-45 31 -3 5 15 79 40 163 41 136 46 163 43 233 l-3 79 -65 -218 c-36 -120 -68
-219 -70 -220 -3 -1 -202 120 -442 268 l-437 270 510 3 509 2 0 25 0 25 -534
0 -535 0 30 73 c70 169 162 302 318 458 80 80 160 149 220 188 219 147 464
240 726 275 55 8 103 14 108 15 4 1 7 -4 7 -10z m-859 -1422 l366 -227 -149
-498 c-82 -273 -151 -503 -153 -510 -5 -14 -67 27 -181 120 -131 107 -286 303
-367 463 -45 90 -104 263 -123 362 -38 195 -24 469 31 631 3 8 39 -9 107 -51
57 -35 268 -166 469 -290z m2528 296 c27 -97 43 -260 38 -383 -14 -323 -120
-590 -337 -853 -63 -77 -212 -217 -229 -217 -3 0 -86 203 -185 452 -140 354
-175 453 -165 459 8 4 203 136 434 293 231 157 423 285 427 285 4 1 12 -16 17
-36z"/>
<path d="M2088 2269 c-10 -5 -18 -15 -18 -22 0 -9 -36 -11 -142 -9 -92 3 -162
-1 -196 -9 -49 -11 -54 -11 -75 9 -35 33 -96 30 -130 -5 -31 -34 -57 -92 -57
-131 0 -16 13 -47 30 -71 20 -27 29 -49 25 -61 -3 -11 -2 -28 4 -38 6 -12 6
-33 0 -62 -5 -24 -7 -50 -3 -59 4 -9 8 -34 9 -56 1 -22 7 -65 13 -95 35 -167
35 -151 3 -180 -55 -50 -64 -101 -20 -115 10 -4 19 -11 19 -16 0 -5 9 -9 19
-9 11 0 23 -5 26 -10 4 -6 10 -8 15 -5 25 15 40 -74 25 -155 -4 -24 -2 -41 9
-55 9 -11 16 -14 16 -7 0 19 38 14 43 -5 4 -16 5 -16 6 -2 2 32 51 35 51 3 0
-8 5 -14 10 -14 6 0 10 7 10 15 0 21 27 19 39 -2 8 -16 11 -15 20 10 6 16 11
39 11 53 0 19 5 24 25 24 21 0 25 -5 26 -32 0 -37 17 -86 18 -55 1 10 9 17 21
17 12 0 20 -7 20 -17 1 -17 1 -17 11 0 12 21 49 23 49 2 0 -20 10 -19 26 3 12
16 14 16 29 -3 11 -14 18 -16 21 -7 3 6 14 12 24 12 15 0 25 21 50 100 l32
100 -22 18 c-21 17 -22 20 -7 48 l16 30 -30 -4 c-21 -3 -31 1 -36 14 -4 10 -2
19 5 22 7 2 10 8 6 13 -3 5 4 22 16 37 19 23 20 27 6 30 -13 3 -10 11 14 40
41 52 51 117 49 317 -2 158 -1 173 20 213 27 52 19 90 -30 151 -27 34 -38 41
-68 41 -20 0 -44 -5 -53 -11z m-359 -342 c6 -8 9 -17 6 -20 -3 -4 -2 -5 2 -2
3 3 15 -3 26 -12 11 -10 18 -13 14 -8 -3 6 -2 17 3 25 7 12 10 12 16 -3 3 -9
10 -17 15 -17 4 0 6 8 2 18 -6 16 -5 16 14 -1 23 -20 80 -30 88 -16 4 5 13 5
24 -1 12 -6 22 -5 30 3 9 9 14 8 21 -3 9 -13 10 -13 10 0 0 12 2 12 9 2 6 -10
16 -5 39 19 27 28 36 31 69 26 54 -9 73 -37 73 -107 0 -32 -5 -71 -11 -87 -6
-15 -10 -29 -9 -31 1 -2 -9 -12 -21 -23 -12 -10 -17 -19 -10 -19 26 0 -27 -38
-74 -54 -97 -31 -419 -9 -426 29 -3 22 -11 35 -18 30 -4 -2 -7 6 -6 18 1 19 7
21 41 19 48 -3 70 13 81 59 11 42 -3 86 -31 93 -34 9 -98 7 -91 -3 3 -5 1 -12
-5 -16 -6 -4 -8 -31 -6 -67 4 -43 2 -58 -5 -51 -6 6 -12 22 -12 36 -1 14 -5
23 -9 21 -12 -8 -18 31 -10 76 7 40 10 45 42 51 19 4 36 12 38 18 5 16 67 14
81 -2z m291 -517 c0 -28 -6 -65 -13 -83 -8 -18 -12 -37 -10 -44 3 -7 -5 -18
-16 -25 -12 -7 -21 -18 -21 -25 0 -13 -12 -16 -63 -15 -16 0 -25 -4 -21 -10 4
-6 -1 -6 -14 1 -12 6 -22 7 -24 2 -3 -11 -78 10 -78 21 0 5 -6 8 -14 8 -22 0
-46 40 -46 77 0 38 22 56 90 73 25 6 63 18 85 27 143 57 145 57 145 -7z"/>
<path d="M2090 1872 c-14 -2 -34 -15 -44 -29 -40 -54 -12 -133 47 -133 38 0
50 7 66 37 15 29 14 49 -5 88 -17 37 -27 42 -64 37z"/>
<path d="M2261 1741 c-7 -11 -13 -44 -16 -73 -5 -74 -28 -140 -51 -149 -14 -6
-10 -8 19 -10 20 -1 42 -2 49 -3 7 -1 15 13 18 29 4 17 21 61 38 98 38 79 39
92 11 94 -12 1 -29 9 -39 18 -17 16 -19 15 -29 -4z"/>
</g>
</svg>
